<svg xmlns="http://www.w3.org/2000/svg" viewBox="0 0 87.05 58.13">
  <g id="Layer_2" data-name="Layer 2">
    <g id="Capa_1" data-name="Capa 1">
      <path id="beard" d="M.32,0S6.26,27.38,14.6,34.63c3.73,3.24,13.49,8,19.89,6.18s6.4-10.68,6.4-10.68h5.28s0,8.9,6.4,10.68,16.16-2.94,19.89-6.18C80.76,27.38,86.7.81,86.7.81s.93,19.89-.24,27.09c-.18-.6-.37-1.19-.54-1.78C85.41,30.27,84.5,33.7,82,36.57l-.32-1a19.7,19.7,0,0,1-6.53,10.9l-.33-1.68a22,22,0,0,1-10.48,8.9l-.09-2.18A19.58,19.58,0,0,1,53,56.06V54.88a17,17,0,0,1-9.45,3.25,17,17,0,0,1-9.45-3.25v1.18a19.58,19.58,0,0,1-11.28-4.53c0,.72-.06,1.45-.09,2.18a22,22,0,0,1-10.48-8.9c-.11.56-.22,1.12-.34,1.68A19.71,19.71,0,0,1,5.4,35.59l-.33,1c-2.5-2.87-3.4-6.32-3.91-10.45L.62,27.9C-.57,20.72.32,0,.32,0Z" fill="#6d3f15"/>
    </g>
  </g>
</svg>
