<svg xmlns="http://www.w3.org/2000/svg" viewBox="0 0 84.74 69.95">
  <g id="Layer_2" data-name="Layer 2">
    <g id="Capa_1" data-name="Capa 1">
      <path id="hair" d="M4,70h.63c.41-1.8,0-28.69,4.21-36,3.29,2.08,7.7,3.1,11.5,3.51A75.24,75.24,0,0,0,33.61,38a88.26,88.26,0,0,0,26.7-5.65c1.93-.74,8.68-3.86,8.87-3.11A111.79,111.79,0,0,1,75.12,70h.67c3.61-15.35,5.67-24.54,5.07-29.54-.55-4.63-1.81-9.44-4.59-13.24,3.58-1.85,8.71-6,8.46-10.6V16.5c-.16-1.51-2.73.45-3.4.8.25-.86.76-3.4-.88-2.81,0-.45.11-1.71-.48-1.91s-1.47.7-1.87,1A18.28,18.28,0,0,1,75.7,15c-.86-.42-1.72-.85-2.6-1.22-1.73-.73-3.48-1.41-5.26-2A28,28,0,0,1,62.7,8.92C55.61,4.62,47.94.8,39.58.13A37.66,37.66,0,0,0,15.27,6.56a30.33,30.33,0,0,0-8.11,8c-1.14,1.71-4.75,8.31-.79,9C-6.26,32.73,3.74,68.27,4,70Z" fill="#6d3f15"/>
    </g>
  </g>
</svg>
