<svg xmlns="http://www.w3.org/2000/svg" viewBox="0 0 184.39 277.84">
  <g style="isolation: isolate">
    <g id="Layer_1" data-name="Layer 1">
      <g id="Layer_1-2" data-name="Layer 1">
        <g id="face" data-color="face" style="color: #ffc280">
          <ellipse cx="161.96" cy="146.42" rx="19.44" ry="25.46" fill="currentColor"/>
          <path d="M39.81,146.42c0,14.06-8.7,25.46-19.44,25.46S.93,160.48.93,146.42,9.63,121,20.37,121,39.81,132.36,39.81,146.42Z" fill="currentColor" fill-rule="evenodd"/>
          <path d="M32.43,146.42c0,9.35-5.79,16.94-12.93,16.94S6.56,155.77,6.56,146.42s5.79-16.93,12.94-16.93S32.43,137.07,32.43,146.42Z" fill="currentColor" fill-rule="evenodd" style="mix-blend-mode: multiply"/>
          <rect x="49.41" y="216.25" width="83.5" height="58.93" fill="currentColor"/>
          <path d="M49.43,243.13C59.7,248.82,73.25,252,91.18,252S122,271.2,132.93,275.18V216.25H49.43Z" fill="currentColor" fill-rule="evenodd" style="mix-blend-mode: multiply"/>
          <path d="M174.89,146.42c0,9.35-5.79,16.94-12.93,16.94S149,155.77,149,146.42s5.79-16.93,12.94-16.93S174.89,137.07,174.89,146.42Z" fill="currentColor" fill-rule="evenodd" style="mix-blend-mode: multiply"/>
          <path d="M91.16,38.86c83.73,1.86,73.29,44.94,73.29,100.39S131.64,239.64,91.16,239.64,17.87,194.69,17.87,139.25,19.4,37.27,91.16,38.86Z" fill="currentColor"/>
        </g>
        <g id="eyebrows">
          <path d="M101.61,118.55s3.61-10.37,9-17.15L109,106.12a19.3,19.3,0,0,1,3.92-3.52c2.37-1.6,20.21-3.9,23.8-3.1l-.58-2s6.24,6.56,10.4,20.12c0,0-4.59-6.39-7.6-7s-30.46,4.48-37.31,10.31Z" fill="#6d3f15"/>
          <path d="M82.18,118.55s-3.6-10.37-9-17.15l1.59,4.72a19.35,19.35,0,0,0-3.93-3.52c-2.36-1.6-20.21-3.9-23.79-3.1l.57-2s-6.24,6.56-10.39,20.12c0,0,4.58-6.39,7.59-7S75.34,115.15,82.18,121Z" fill="#6d3f15"/>
        </g>
        <path id="mouth" d="M114.43,190.31c0,7.44-10.07,13.47-22.5,13.47s-22.5-6-22.5-13.47" fill="#af0824"/>
        <path data-feature="beard" id="beard" d="M19.17,151.84s10,46.14,24.06,58.36c6.28,5.46,22.73,13.44,33.51,10.41s10.79-18,10.79-18h8.9s.07,15,10.78,18,27.23-5,33.51-10.41c14-12.22,24-57,24-57s1.57,33.52-.41,45.65c-.3-1-.61-2-.91-3-.86,7-2.39,12.78-6.6,17.61l-.54-1.65a33.24,33.24,0,0,1-11,18.37c-.18-.94-.37-1.89-.56-2.83a37,37,0,0,1-17.66,15l-.15-3.68a33,33,0,0,1-19,7.64v-2c-7,5.48-15.93,5.48-15.93,5.48s-9,0-15.93-5.48v2a33,33,0,0,1-19-7.64c0,1.22-.1,2.45-.16,3.68a37.12,37.12,0,0,1-17.66-15c-.18.94-.37,1.89-.56,2.83a33.2,33.2,0,0,1-10.93-18.37c-.19.55-.37,1.1-.55,1.65-4.21-4.83-5.73-10.64-6.59-17.61-.31,1-.61,2-.92,3C17.66,186.76,19.17,151.84,19.17,151.84Z" fill="#6d3f15"/>
        <path data-feature="hair" id="hair" d="M17.34,146.61h1.29c.85-3.71.06-59.05,8.68-74.12,6.76,4.27,15.83,6.38,23.65,7.22a154.56,154.56,0,0,0,27.28,1.1,181.45,181.45,0,0,0,55-11.63c3.95-1.52,17.85-7.93,18.24-6.4a230.12,230.12,0,0,1,12.22,83.83H165c7.42-31.6,11.66-50.51,10.42-60.8-1.13-9.52-3.72-19.42-9.44-27.24,7.37-3.8,17.92-12.33,17.42-21.81v-.15c-.33-3.11-5.63.94-7,1.65.51-1.76,1.57-7-1.81-5.78.05-.93.21-3.53-1-3.94s-3,1.44-3.85,2a36.53,36.53,0,0,1-4.94,3c-1.77-.86-3.53-1.74-5.35-2.51-3.57-1.49-7.16-2.9-10.83-4.14s-7.15-3.81-10.58-5.88C123.51,12.17,107.73,4.3,90.52,2.92a77.51,77.51,0,0,0-50,13.23A62.29,62.29,0,0,0,23.8,32.59C21.46,36.1,14,49.69,22.18,51.06-3.81,70,16.76,143.16,17.34,146.61Z" fill="#6d3f15"/>
        <path data-feature="mustache" id="mustache" d="M121.37,169.48c-5.59-3.62-12-9.89-20.2-10.39-4.91-.3-7.57.72-9.23,1.91-1.65-1.19-4.31-2.21-9.23-1.91-8.23.5-14.6,6.77-20.2,10.39-4.19,2.72-14.88,7.57-26.84,2.58,6.4,12.8,24.43,14.88,39,10.72C80.74,181,89,176.19,92,169.78c3,6.45,11.25,11.3,17.31,13,14.53,4.16,32.57,2.08,39-10.72C136.25,177.05,125.56,172.2,121.37,169.48Z" fill="#6d3f15"/>
        <g id="eyes">
          <circle cx="68.35" cy="131.99" r="8.44"/>
          <circle cx="115.54" cy="131.99" r="8.44"/>
        </g>
      </g>
    </g>
  </g>
</svg>
